<svg xmlns="http://www.w3.org/2000/svg" width="1000" height="360" viewBox="0 0 1000 360" role="img" aria-labelledby="t d"><title id="t">w06 frequency sweep</title><desc id="d">Instructional diagram for w06 frequency sweep.</desc><rect width="1000" height="360" rx="18" fill="#fbf8ef"/><rect x="18" y="18" width="964" height="324" rx="14" fill="none" stroke="#0b4f38" stroke-width="3"/><text x="55" y="65" font-family="Arial" font-size="23" font-weight="700" fill="#0b4f38">W06 Frequency Sweep</text><text x="70" y="110" font-family="Arial" font-size="16" font-weight="700" fill="#16322a">f low</text><line x1="300" y1="104" x2="900" y2="104" stroke="#d6dfda" stroke-width="2"/><path d="M330 120 C450 115, 520 82, 610 82 S760 112, 870 102" fill="none" stroke="#c8a951" stroke-width="4"/><text x="330" y="135" font-family="Arial" font-size="13" fill="#65766f">baseline</text><text x="70" y="164" font-family="Arial" font-size="16" font-weight="700" fill="#16322a">f near fc/f0</text><line x1="300" y1="158" x2="900" y2="158" stroke="#d6dfda" stroke-width="2"/><path d="M330 174 C450 169, 520 136, 610 136 S760 166, 870 156" fill="none" stroke="#c8a951" stroke-width="4"/><text x="330" y="189" font-family="Arial" font-size="13" fill="#65766f">transition/resonance</text><text x="70" y="218" font-family="Arial" font-size="16" font-weight="700" fill="#16322a">f high</text><line x1="300" y1="212" x2="900" y2="212" stroke="#d6dfda" stroke-width="2"/><path d="M330 228 C450 223, 520 190, 610 190 S760 220, 870 210" fill="none" stroke="#c8a951" stroke-width="4"/><text x="330" y="243" font-family="Arial" font-size="13" fill="#65766f">rolloff</text><text x="70" y="272" font-family="Arial" font-size="16" font-weight="700" fill="#16322a">measure gain + phase</text><line x1="300" y1="266" x2="900" y2="266" stroke="#d6dfda" stroke-width="2"/><path d="M330 282 C450 277, 520 244, 610 244 S760 274, 870 264" fill="none" stroke="#c8a951" stroke-width="4"/><text x="330" y="297" font-family="Arial" font-size="13" fill="#65766f">compare model to data</text><text x="500" y="325" text-anchor="middle" font-family="Arial, sans-serif" font-size="14" fill="#65766f">Use the labels to explain cause → observation, not just memorize the picture.</text></svg>